<svg width="44" height="27" viewBox="0 0 44 27" fill="none" xmlns="http://www.w3.org/2000/svg">
<path d="M22 7.62939e-05C13.5933 7.62939e-05 5.96972 4.57243 0.344277 11.9992C-0.114759 12.6076 -0.114759 13.4577 0.344277 14.0661C5.96972 21.5018 13.5933 26.0742 22 26.0742C30.4067 26.0742 38.0303 21.5018 43.6557 14.0751C44.1148 13.4666 44.1148 12.6166 43.6557 12.0081C38.0303 4.57244 30.4067 7.62939e-05 22 7.62939e-05ZM22.603 22.2176C17.0226 22.5666 12.4142 17.9942 12.7653 12.4376C13.0533 7.8563 16.7886 4.14294 21.397 3.85661C26.9774 3.50764 31.5858 8.08 31.2347 13.6366C30.9377 18.209 27.2024 21.9223 22.603 22.2176ZM22.324 17.9763C19.3178 18.1642 16.8336 15.7036 17.0316 12.715C17.1846 10.2454 19.2008 8.25001 21.685 8.08895C24.6912 7.90104 27.1754 10.3617 26.9774 13.3503C26.8154 15.8288 24.7992 17.8242 22.324 17.9763Z" fill="white"/>
</svg>
