<svg width="40" height="38" viewBox="0 0 40 38" fill="none" xmlns="http://www.w3.org/2000/svg">
<path d="M30.5268 21.6247L29.2346 23.5722L27.6344 15.5699L26.4104 19.0101C26.5984 19.5481 26.9221 20.5625 27.1731 21.7852L27.409 21.128L28.4299 26.2307L31.0694 22.9353H39.3168V21.6247H30.5268Z" fill="white"/>
<path d="M14.1405 7.46436C14.6241 7.2278 15.1293 7.03646 15.6503 6.89098L15.1595 0.506548C15.1333 0.163835 14.7637 -0.0786204 14.4393 0.0275356L13.7735 0.249677C13.3738 0.3827 13.1058 0.754901 13.1058 1.17559C13.1058 1.22933 13.1104 1.28306 13.1189 1.33679L14.1405 7.46436Z" fill="white"/>
<path d="M15.3384 13.1058C16.7079 13.1058 18.0519 12.6347 19.122 11.7789C20.1502 10.9565 21.3801 10.4074 22.6782 10.1911L23.3656 10.0764C21.9922 8.69968 20.0964 7.86354 18.027 7.86354C15.5691 7.86354 13.2605 9.06533 11.8516 11.0797C11.6983 11.2992 11.5548 11.524 11.4185 11.7513C12.4945 12.6261 13.8293 13.1058 15.2309 13.1058H15.3384Z" fill="white"/>
<path d="M0.423969 8.32605L3.12177 9.67462C4.05228 10.1399 4.73574 10.9564 5.04897 11.9255C5.49325 11.8443 5.94736 11.7951 6.41392 11.7951H6.49976C7.01285 11.7951 7.52791 11.8462 8.02985 11.9465L9.65889 12.2722C9.9636 11.611 10.3299 10.9747 10.7512 10.3679L9.39547 9.01213C8.84306 8.45972 8.50559 7.72646 8.4453 6.94667L7.95319 0.547819C7.92566 0.192 7.55739 -0.070769 7.21861 0.0170391L5.84317 0.360408C5.48932 0.450182 5.24227 0.766684 5.24227 1.13233C5.24227 1.19786 5.25014 1.26208 5.26586 1.32433L6.33267 5.59089C6.52532 6.36412 6.16295 7.15243 5.45 7.5089C4.87532 7.79657 4.19841 7.73563 3.68335 7.34902L1.97503 6.06793C1.59889 5.78747 1.01307 5.88642 0.752266 6.27763L0.128436 7.21272C0.0445594 7.33984 0 7.48663 0 7.63931C0 7.93156 0.162511 8.19499 0.423969 8.32605Z" fill="white"/>
<path d="M4.80725 21.6242C6.88843 21.6242 8.51812 19.9664 8.51812 17.8492V17.494C8.51812 16.1251 8.7383 14.7837 9.16686 13.5105L7.77241 13.2314C7.35434 13.1481 6.92578 13.1056 6.49919 13.1056H6.41335C2.96393 13.1056 0.141624 15.9023 0.00466919 19.3924L0.419464 19.8071C1.59177 20.9788 3.15003 21.6242 4.80725 21.6242Z" fill="white"/>
<path d="M19.3688 6.66148L20.9068 2.04762C20.9487 1.92312 20.9697 1.79206 20.9697 1.66101C20.9697 1.2508 20.7659 0.870079 20.4245 0.642695L19.5825 0.0811167C19.3053 -0.103674 18.8905 0.0752191 18.8361 0.404827L17.8092 6.56647C17.8826 6.5645 17.9541 6.5527 18.0275 6.5527C18.4835 6.5527 18.9298 6.59464 19.3688 6.66148Z" fill="white"/>
<path d="M25.3986 5.19433C25.5008 5.07179 25.5565 4.91714 25.5565 4.75791C25.5565 4.49776 25.4123 4.26448 25.1797 4.14784L24.9582 4.03709C24.5093 3.81233 23.9255 3.97615 23.6594 4.40274L21.7925 7.38953C22.2126 7.58677 22.6129 7.82005 22.9943 8.07889L25.3986 5.19433Z" fill="white"/>
<path d="M15.0717 24.2455C16.1574 24.2455 17.0375 23.3653 17.0375 22.2796C17.0375 21.1939 16.1574 20.3138 15.0717 20.3138C13.9859 20.3138 13.1058 21.1939 13.1058 22.2796C13.1058 23.3653 13.9859 24.2455 15.0717 24.2455Z" fill="white"/>
<path d="M21.6421 19.3202L20.8387 22.9348H18.2812C17.9764 24.4282 16.6534 25.5559 15.0709 25.5559C13.2643 25.5559 11.7945 24.0861 11.7945 22.2795C11.7945 20.4729 13.2643 19.0031 15.0709 19.0031C16.6528 19.0031 17.9764 20.1308 18.2812 21.6242H19.7877L21.6054 13.4436L24.3065 24.9223L26.41 19.0096C26.3202 18.7521 26.2599 18.5981 26.2573 18.5916L26.2206 18.4625L25.4493 14.0924C25.2645 13.0465 24.8661 12.0879 24.3117 11.2478L22.893 11.4843C21.8151 11.6639 20.7942 12.12 19.9403 12.8028C18.6383 13.8427 17.004 14.4161 15.3376 14.4161H15.2295C13.6162 14.4161 12.0776 13.8912 10.807 12.9338C10.1681 14.3604 9.82864 15.9049 9.82864 17.494V17.8491C9.82864 20.6537 7.57577 22.9348 4.8072 22.9348C3.06742 22.9348 1.41807 22.3476 0.0845642 21.2671C0.42007 24.3024 1.73522 27.1679 3.87342 29.4706C6.72259 32.5393 10.2834 34.9855 14.1712 36.5457L17.4535 37.8608C18.0243 38.0889 18.7169 38.0476 19.1979 37.6557L19.5229 37.3904C23.4389 34.1854 26.2769 29.7242 27.5213 24.8207C27.5141 23.7709 27.3654 22.7192 27.1734 21.7841L24.184 30.1219L21.6421 19.3202Z" fill="white"/>
</svg>
