<svg width="29" height="30" viewBox="0 0 29 30" fill="none" xmlns="http://www.w3.org/2000/svg">
<path d="M21.569 7.53161C20.8885 5.44559 21.366 3.20131 22.0982 1.13279C22.1835 0.891776 22.1562 0.623009 22.0197 0.403236C21.8645 0.152651 21.5915 0 21.297 0H7.71528C7.42074 0 7.14772 0.152651 6.99258 0.403236C6.83744 0.653822 6.82333 0.966601 6.95525 1.22965C7.89784 3.11397 8.09195 5.3237 7.5087 7.32917C6.94698 9.10145 6.12471 10.7169 5.32905 12.2785C5.08407 12.7591 4.84408 13.2327 4.61292 13.7045L8.44138 15.6189C12.1851 17.4908 16.8149 17.4908 20.5586 15.6189L24.3965 13.7001C24.1683 13.2357 23.9313 12.77 23.69 12.2976C22.9219 10.7962 22.127 9.2421 21.569 7.53161ZM14.4999 15.3501C14.0307 15.3501 13.6503 14.9697 13.6503 14.5004C13.6503 14.0311 14.0307 13.6508 14.4999 13.6508C14.9691 13.6508 15.3495 14.0311 15.3495 14.5004C15.3495 14.9697 14.9691 15.3501 14.4999 15.3501Z" fill="white"/>
<path d="M0.84955 6.8536H2.25366L2.00471 7.10254C1.67285 7.43441 1.67285 7.97211 2.00471 8.30398C2.33658 8.63585 2.87429 8.63585 3.20615 8.30398L4.90542 6.60471C5.23729 6.27284 5.23729 5.73514 4.90542 5.40327L3.20615 3.704C2.87429 3.37213 2.33658 3.37213 2.00471 3.704C1.67285 4.03587 1.67285 4.57357 2.00471 4.90544L2.25366 5.15433H0.84955C0.379929 5.15433 -8.39233e-05 5.53434 -8.39233e-05 6.00396C-8.39233e-05 6.47358 0.379929 6.8536 0.84955 6.8536Z" fill="white"/>
<path d="M28.1506 5.15438H26.7464L26.9954 4.90544C27.3273 4.57357 27.3273 4.03587 26.9954 3.704C26.6635 3.37213 26.1258 3.37213 25.7939 3.704L24.0947 5.40327C23.7628 5.73514 23.7628 6.27284 24.0947 6.60471L25.7939 8.30398C26.1258 8.63585 26.6635 8.63585 26.9954 8.30398C27.3273 7.97211 27.3273 7.43441 26.9954 7.10254L26.7464 6.85365H28.1506C28.6202 6.85365 29.0002 6.47364 29.0002 6.00402C29.0002 5.5344 28.6202 5.15438 28.1506 5.15438Z" fill="white"/>
<path d="M25.1035 15.2469L21.3192 17.139C19.2125 18.1919 16.8553 18.7487 14.5006 18.7487C12.1458 18.7487 9.78861 18.1919 7.68191 17.139L3.90834 15.2522C3.55841 16.0782 3.25401 16.9136 3.04546 17.7904C2.82557 18.714 2.6843 19.6483 2.60257 20.586C6.63159 19.7063 10.1788 20.8718 13.402 24.0954C13.7372 24.3667 15.2647 24.3675 15.6049 24.0895C17.8764 21.8169 21.2371 19.4286 26.4112 20.5938C26.3296 19.6534 26.1886 18.7163 25.9681 17.7903C25.7581 16.9073 25.4533 16.0711 25.1035 15.2469Z" fill="white"/>
<path d="M16.8003 25.2969C16.6482 25.449 16.4345 25.5669 16.1996 25.6689V28.1514C16.1996 28.6206 16.5801 29.001 17.0493 29.001H24.696C25.0549 29.001 25.3839 28.7728 25.4976 28.4322C26.1493 26.4815 26.4445 24.3952 26.4552 22.3605C21.8849 21.1803 18.9521 23.1452 16.8003 25.2969Z" fill="white"/>
<path d="M2.55847 22.3397C2.56685 24.3814 2.86162 26.4749 3.51556 28.4325C3.62929 28.7729 3.95816 29.0012 4.31716 29.0012H11.9514C12.4206 29.0012 12.801 28.6208 12.801 28.1516V25.6691C12.5661 25.567 12.3525 25.4492 12.2003 25.2971C10.0063 23.103 7.07037 21.1837 2.55847 22.3397Z" fill="white"/>
</svg>
